<?xml version="1.0" encoding="UTF-8"?><svg xmlns="http://www.w3.org/2000/svg" xmlns:xlink="http://www.w3.org/1999/xlink" viewBox="0 0 750 500"><defs><style>.cls-1{fill:#fff;}.cls-2{fill:#fc5b23;}.cls-3{fill:#18a795;}.cls-4,.cls-5,.cls-6{fill:#ffe4dd;}.cls-5{opacity:.38;}.cls-7{fill:#ffb8a4;}.cls-8{fill:#011d44;}.cls-9,.cls-10{fill:#fc981f;}.cls-11{clip-path:url(#clippath);}.cls-12{fill:none;}.cls-6{opacity:.5;}.cls-10{opacity:.2;}</style><clipPath id="clippath"><rect class="cls-12" width="750" height="500"/></clipPath></defs><g id="BACKGROUND"><rect class="cls-1" width="750" height="500"/></g><g id="OBJECTS"><g class="cls-11"><path class="cls-4" d="M431,0c19,43,97.14,63.89,180,42,106-28,123,44,130,109,6.81,63.2-49,134,9,172V0H431Z"/><path class="cls-7" d="M72.6,456.26c-36.12,1.94-51.75-43.98-23.91-62.66,27.84-18.68,96.48,.18,103.06,21.94,6.58,21.77-51.9,39.25-79.15,40.72Z"/><path class="cls-4" d="M93.75,437.67c-10.92-8.75-19.98-19.96-25.37-32.93-4.95-11.92-7.8-28.73-.92-40.56,5.2-8.94,16.79-13.53,26.36-15.86,10.31-2.51,21.77-.31,31.71,2.84,25,7.95,43.88,27.61,57.52,49.32,7.99,12.72,18.21,28.48,10.62,43.69-5.4,10.82-17.61,17.47-29.51,16.9-11.7-.57-23.47-3.34-34.65-6.68-12.63-3.78-25.39-8.73-35.92-16.83-.76-.59-1.51,.71-.76,1.3,10.26,7.9,22.69,12.82,34.98,16.59,11.22,3.44,22.94,6.17,34.67,7.02,11.01,.8,21.51-3.35,28.72-11.93,9.91-11.79,7.03-26.04,.27-38.56-13.25-24.52-31.62-48.14-57.9-59.4-20.15-8.63-46.12-10.55-63.27,5.71-10.29,9.75-9.49,27.43-5.84,39.97,4.69,16.06,15.25,30.11,28.21,40.49,.75,.6,1.81-.46,1.06-1.06Z"/><path class="cls-3" d="M301.5,500c21-12,79-29,147,0h-147Z"/><path class="cls-9" d="M-14,378c20.25,11.45,17,115,113,96,91.12-18.04,151.04,13.53,146,32-9,33-261,8-261,8l2-136Z"/><path class="cls-4" d="M.85,338.64c27.93-45.71,50.98-89.74,40.63-116.81C30.47,193.05,0,180.36,0,180.36l.85,158.29Z"/><g><path class="cls-9" d="M36.25,336.03c.36-1.39,1.34-2.53,2.7-3.02,.9-.33,.51-1.78-.4-1.45-1.85,.67-3.25,2.15-3.75,4.07-.24,.94,1.2,1.33,1.45,.4h0Z"/><path class="cls-9" d="M56.25,340.78l4.56-4.51c.69-.68-.37-1.74-1.06-1.06l-4.56,4.51c-.69,.68,.37,1.74,1.06,1.06h0Z"/><path class="cls-9" d="M59.73,297.75l4.42-3.56c.75-.61-.32-1.66-1.06-1.06l-4.42,3.56c-.75,.61,.32,1.66,1.06,1.06h0Z"/><path class="cls-9" d="M59.73,318.75l4.42-3.56c.75-.61-.32-1.66-1.06-1.06l-4.42,3.56c-.75,.61,.32,1.66,1.06,1.06h0Z"/></g><path class="cls-3" d="M1,144c71.22,0,12.68-127,101-127,22,0,84,31,79.97-16.7C180.92-12.09,0,0,0,0,0,0-37,144,1,144Z"/><path class="cls-4" d="M534,500c63-28,101.32-65.34,168-52,17.35,3.47,48,20,48,52h-216Z"/><path class="cls-9" d="M659,57c-28-2-27,26-1,39,16.8,8.4,49,30,55,14s-22.93-50.78-54-53Z"/><path class="cls-9" d="M756.48,319.86c-9.13,6.46-21.3,6.13-30.82,.58s-15.54-16.29-17.88-27.03c-5.06-23.14,4.55-48.55,12.4-70.07,4.09-11.21,8.72-22.22,13.88-32.98,2.46-5.14,5.05-10.22,7.74-15.24,2.62-4.87,5.19-11.53,8.91-15.63,1.38-1.53,2.15-7.04,6.67-1.66,.72,.85,.86,2.29,1.14,3.38,.79,3.07,1.11,6.41,1.6,9.54,1.09,6.94,2.01,13.91,2.78,20.89,1.33,12.18,2.18,24.41,2.54,36.65,.83,28.3-.99,56.64-5.32,84.62-.15,.94,1.3,1.35,1.45,.4,4.5-29.07,6.33-58.51,5.28-87.91-.54-15.14-1.83-30.26-3.85-45.27-.86-6.39-1.53-13.03-3.02-19.31-.62-2.62-1.92-6.65-5.2-6.83-3.7-.2-5.75,5.41-7.19,7.85-3.65,6.2-7.13,12.51-10.41,18.92-6.05,11.8-11.47,23.93-16.22,36.31-5,13.01-9.46,26.35-12.73,39.9-2.95,12.25-4.62,25.18-1.72,37.61,2.63,11.29,9.13,22.41,19.69,27.89,9.82,5.09,21.88,5.2,31.05-1.29,.78-.55,.03-1.85-.76-1.3h0Z"/><path class="cls-2" d="M786.51,34.3c-13.65,6.72-28.28,10.87-43.18,13.78s-31.79,7.03-45.26-.31c-5.91-3.22-11.03-8.9-12.38-15.64-1.72-8.58,4.23-15.83,8.61-22.58,8.65-13.33,17.31-26.66,25.96-39.99,.53-.81-.77-1.56-1.3-.76-10.36,15.95-21.41,31.64-31.12,48-6.66,11.22-3.85,23.2,6.95,30.69,12.59,8.74,29.5,5.52,43.54,3.03,16.88-2.99,33.5-7.33,48.94-14.93,.87-.43,.11-1.72-.76-1.3h0Z"/><path class="cls-8" d="M629,51c-5.33,3.55,0,13,8,7,5.12-3.84-2-11-8-7Z"/><path class="cls-8" d="M15.35,374.25c-3.62,2.41,0,8.82,5.43,4.75,3.48-2.61-1.36-7.47-5.43-4.75Z"/><path class="cls-2" d="M269,445c-17.63-5.12-33,42-.53,34.49,24.97-5.77,31.53-25.49,.53-34.49Z"/><path class="cls-2" d="M544-17c-17.94,3.9,16,43,40,34s-17-39-40-34Z"/><path class="cls-9" d="M236-9c-3.29,26.36,113,41,148,1,21.27-24.31-148-1-148-1Z"/><g><path class="cls-9" d="M319.92,40.01l3.38,1.2c.91,.32,1.3-1.13,.4-1.45l-3.38-1.2c-.91-.32-1.3,1.13-.4,1.45h0Z"/><path class="cls-9" d="M405.94,23.49l4.54,1.14c.94,.24,1.34-1.21,.4-1.45l-4.54-1.14c-.94-.24-1.34,1.21-.4,1.45h0Z"/><path class="cls-9" d="M470.86,60.65l5.66,1.19c.94,.2,1.34-1.25,.4-1.45l-5.66-1.19c-.94-.2-1.34,1.25-.4,1.45h0Z"/></g><path class="cls-3" d="M773,413c13.5-29.01-50.26-52.55-64.7-36.02-14.44,16.52,12.42,32.51,22.7,37.02,23.48,10.3,37.48,8.71,42-1Z"/><g><path class="cls-8" d="M229.36,35.51c-1.75-1.66-3.52-3.3-5.28-4.95-.7-.66-1.77,.4-1.06,1.06,1.76,1.65,3.53,3.29,5.28,4.95,.7,.66,1.76-.39,1.06-1.06h0Z"/><path class="cls-8" d="M214.96-.74l-3.93-3.74c-.7-.67-1.76,.39-1.06,1.06l3.93,3.74c.7,.67,1.76-.39,1.06-1.06h0Z"/><path class="cls-8" d="M217.09,15.84c-1.3-1.26-2.6-2.52-3.9-3.78-.69-.67-1.76,.39-1.06,1.06l3.9,3.78c.69,.67,1.76-.39,1.06-1.06h0Z"/><path class="cls-8" d="M243.01,39.55l-3.93-3.74c-.7-.67-1.76,.39-1.06,1.06,1.31,1.25,2.62,2.5,3.93,3.74,.7,.67,1.76-.39,1.06-1.06h0Z"/><path class="cls-8" d="M245.13,56.13l-3.9-3.78c-.69-.67-1.76,.39-1.06,1.06,1.3,1.26,2.6,2.52,3.9,3.78,.69,.67,1.76-.39,1.06-1.06h0Z"/></g><g><path class="cls-8" d="M490.17,505.35c2.59-2.52,5.19-5.04,7.78-7.57,.69-.67-.37-1.73-1.06-1.06l-7.78,7.57c-.69,.67,.37,1.73,1.06,1.06h0Z"/><path class="cls-8" d="M499.14,486.19l5.07-5.16c.68-.69-.38-1.75-1.06-1.06l-5.07,5.16c-.68,.69,.38,1.75,1.06,1.06h0Z"/><path class="cls-8" d="M514.14,498.19l5.07-5.16c.68-.69-.38-1.75-1.06-1.06l-5.07,5.16c-.68,.69,.38,1.75,1.06,1.06h0Z"/><path class="cls-8" d="M521.03,476.1l3.84-3.84c.68-.68-.38-1.74-1.06-1.06l-3.84,3.84c-.68,.68,.38,1.74,1.06,1.06h0Z"/></g><path class="cls-5" d="M504,101c-38.39,4.41-51,77,40,63s21-70-40-63Z"/><path class="cls-6" d="M314.31,443.84c-10.42,1.2-12.03,27.11,10.85,17.09,4.34-1.9,5.7-18.99-10.85-17.09Z"/><path class="cls-10" d="M56.69,152.75c-18.08,2.08-20.89,47.06,18.84,29.68,7.54-3.3,9.89-32.98-18.84-29.68Z"/><g><path class="cls-2" d="M690.5,160.87l-3.55,5.86c-.5,.83,.79,1.58,1.3,.76l3.55-5.86c.5-.83-.79-1.58-1.3-.76h0Z"/><path class="cls-2" d="M690.44,176.76c-1.33,1.64-2.66,3.27-3.99,4.91-.6,.74,.45,1.81,1.06,1.06,1.33-1.64,2.66-3.27,3.99-4.91,.6-.74-.45-1.81-1.06-1.06h0Z"/><path class="cls-2" d="M686.6,192.18l-4.14,4.78c-.63,.73,.43,1.79,1.06,1.06l4.14-4.78c.63-.73-.43-1.79-1.06-1.06h0Z"/></g><path class="cls-4" d="M606.33,411.63c14.97,16.06,44.88,6.96,56.48-8.77,12.53-16.99,4.17-41.81-15.43-48.89-.91-.33-1.3,1.12-.4,1.45,18.99,6.87,26.57,31.06,14.15,47.15-11.25,14.58-39.58,23.19-53.74,8-.66-.71-1.72,.35-1.06,1.06h0Z"/><path class="cls-4" d="M150.73,59.04c-14.97-16.06-44.88-6.96-56.48,8.77-12.53,16.99-4.17,41.81,15.43,48.89,.91,.33,1.3-1.12,.4-1.45-18.99-6.87-26.57-31.06-14.15-47.15,11.25-14.58,39.58-23.19,53.74-8,.66,.71,1.72-.35,1.06-1.06h0Z"/><path class="cls-4" d="M19.24,168.69c-1.9-2.37-.25-6.39,1.5-8.35,2.09-2.34,4.52-1.89,5.97,.76,1.06,1.94,1.89,5.25,.5,7.23s-6.34,1.85-7.98,.36c-.71-.65-1.78,.41-1.06,1.06,2.23,2.03,7.94,2.2,9.99-.19,2.27-2.65,1.15-7.41-.64-10-5.09-7.34-13.76,4.7-9.35,10.19,.6,.75,1.66-.31,1.06-1.06Z"/><path class="cls-1" d="M576.71,73.22c-2.76-3.02,.52-10.66,4.56-11.28s7.13,8.39,4.11,11.38c-1.54,1.52-7.24,1.47-8.67-.09Z"/><path class="cls-4" d="M-5.04-13.66C-21.16-1.84-15.17,22.48,2.1,29.55c19.74,8.07,40.2-5.4,47.64-23.88,3.2-7.95,3.74-19.21-5.69-22.97-8.62-3.44-19.29,.59-25.24,7.18s-7.36,16.54-1.54,23.9c4.64,5.87,12.91,9.3,20,5.86,5.51-2.67,9.63-8.59,12.87-13.61,3.61-5.59,6.37-11.83,7.24-18.47,1.41-10.81-2.8-22.15-12.36-27.89-.83-.5-1.58,.8-.76,1.3,18.07,10.85,12.35,34.38,1.75,48.31-5.59,7.34-13.12,13.49-22.4,8.07C15.3,12.49,12.54,2.36,17.53-5.91c4.56-7.57,14.41-12.44,23.21-10.78,11.54,2.19,10.84,14.67,7.05,23.13-6.91,15.42-23.01,27.22-40.4,23.21C-1.71,27.55-9.76,21.24-12.21,11.99c-2.35-8.88,.4-18.84,7.93-24.36,.77-.56,.02-1.87-.76-1.3h0Z"/></g></g></svg>